999
Plan R+1 - Residence Les Palmiers (fixture de test)
0
SECTION
2
TABLES
0
TABLE
2
LAYER
0
LAYER
2
MURS
70
0
62
7
6
CONTINUOUS
0
LAYER
2
CLOISONS
70
0
62
7
6
CONTINUOUS
0
LAYER
2
MENUISERIES
70
0
62
7
6
CONTINUOUS
0
LAYER
2
TEXTES
70
0
62
7
6
CONTINUOUS
0
LAYER
2
COTATIONS
70
0
62
7
6
CONTINUOUS
0
LAYER
2
MOBILIER
70
1
62
7
6
CONTINUOUS
0
ENDTAB
0
ENDSEC
0
SECTION
2
BLOCKS
0
BLOCK
8
0
2
PORTE90
70
0
10
0
20
0
3
PORTE90
0
LINE
8
0
10
0
20
0
11
0.9
21
0
0
ARC
8
0
10
0
20
0
40
0.9
50
0
51
90
0
ENDBLK
0
BLOCK
8
0
2
LIT
70
0
10
0
20
0
3
LIT
0
LWPOLYLINE
8
0
90
4
70
1
10
0
20
0
10
1.6
20
0
10
1.6
20
2
10
0
20
2
0
ENDBLK
0
ENDSEC
0
SECTION
2
ENTITIES
0
LWPOLYLINE
8
MURS
90
4
70
1
10
0
20
0
10
36
20
0
10
36
20
18
10
0
20
18
0
LWPOLYLINE
8
MURS
90
4
70
1
10
0.25
20
0.25
10
35.75
20
0.25
10
35.75
20
17.75
10
0.25
20
17.75
0
LINE
8
CLOISONS
10
0.25
20
7.5
11
35.75
21
7.5
0
LINE
8
CLOISONS
10
0.25
20
10.5
11
35.75
21
10.5
0
LINE
8
CLOISONS
10
9
20
0.25
11
9
21
7.5
0
LINE
8
CLOISONS
10
9
20
10.5
11
9
21
17.75
0
LINE
8
CLOISONS
10
18
20
0.25
11
18
21
7.5
0
LINE
8
CLOISONS
10
18
20
10.5
11
18
21
17.75
0
LINE
8
CLOISONS
10
27
20
0.25
11
27
21
7.5
0
LINE
8
CLOISONS
10
27
20
10.5
11
27
21
17.75
0
LWPOLYLINE
8
CLOISONS
90
4
70
1
10
16
20
7.5
10
20
20
7.5
10
20
20
10.5
10
16
20
10.5
0
LINE
8
CLOISONS
10
16.4
20
7.5
11
16.4
21
10.5
0
LINE
8
CLOISONS
10
16.799999999999997
20
7.5
11
16.799999999999997
21
10.5
0
LINE
8
CLOISONS
10
17.2
20
7.5
11
17.2
21
10.5
0
LINE
8
CLOISONS
10
17.599999999999998
20
7.5
11
17.599999999999998
21
10.5
0
LINE
8
CLOISONS
10
18.0
20
7.5
11
18.0
21
10.5
0
LINE
8
CLOISONS
10
18.4
20
7.5
11
18.4
21
10.5
0
LINE
8
CLOISONS
10
18.799999999999997
20
7.5
11
18.799999999999997
21
10.5
0
LINE
8
CLOISONS
10
19.2
20
7.5
11
19.2
21
10.5
0
LINE
8
CLOISONS
10
19.599999999999998
20
7.5
11
19.599999999999998
21
10.5
0
INSERT
8
MENUISERIES
2
PORTE90
10
2
20
7.5
41
1
42
1
50
0
0
INSERT
8
MENUISERIES
2
PORTE90
10
2.9
20
10.5
41
1
42
1
50
180
0
INSERT
8
MENUISERIES
2
PORTE90
10
11
20
7.5
41
1
42
1
50
0
0
INSERT
8
MENUISERIES
2
PORTE90
10
11.9
20
10.5
41
1
42
1
50
180
0
INSERT
8
MENUISERIES
2
PORTE90
10
20
20
7.5
41
1
42
1
50
0
0
INSERT
8
MENUISERIES
2
PORTE90
10
20.9
20
10.5
41
1
42
1
50
180
0
INSERT
8
MENUISERIES
2
PORTE90
10
29
20
7.5
41
1
42
1
50
0
0
INSERT
8
MENUISERIES
2
PORTE90
10
29.9
20
10.5
41
1
42
1
50
180
0
INSERT
8
MOBILIER
2
LIT
10
3
20
2
41
1
42
1
50
0
0
INSERT
8
MOBILIER
2
LIT
10
12
20
2
41
1
42
1
50
0
0
INSERT
8
MOBILIER
2
LIT
10
21
20
2
41
1
42
1
50
0
0
INSERT
8
MOBILIER
2
LIT
10
30
20
2
41
1
42
1
50
0
0
TEXT
8
TEXTES
10
1
20
4
40
0.6
1
Logement 101
0
TEXT
8
TEXTES
10
10
20
4
40
0.6
1
Logement 102
0
TEXT
8
TEXTES
10
19
20
4
40
0.6
1
Logement 103
0
TEXT
8
TEXTES
10
28
20
4
40
0.6
1
Logement 104
0
TEXT
8
TEXTES
10
1
20
14
40
0.6
1
Logement 105
0
TEXT
8
TEXTES
10
10
20
14
40
0.6
1
Logement 106
0
TEXT
8
TEXTES
10
19
20
14
40
0.6
1
Logement 107
0
TEXT
8
TEXTES
10
28
20
14
40
0.6
1
Logement 108
0
TEXT
8
TEXTES
10
1
20
8.7
40
0.5
1
Circulation
0
MTEXT
8
TEXTES
10
16.3
20
11
40
0.4
1
{\fArial|b1;Escalier}\PR+1
0
LINE
8
COTATIONS
10
0
20
-1.5
11
36
21
-1.5
0
TEXT
8
COTATIONS
10
17.0
20
-1.2
40
0.5
1
36,00
0
HATCH
8
MURS
0
ENDSEC
0
EOF
